<svg width="1590" height="111" viewBox="0 0 1590 111" fill="none" xmlns="http://www.w3.org/2000/svg">
<g filter="url(#filter0_d_69_20)">
<path d="M1574.51 59.6723C1575.09 58.4966 1568.04 49.6792 1568.04 49.0914C1551.58 58.497 1531.79 60.8478 1523.95 60.8475C1504.67 72.604 1490.45 65.746 1485.75 60.8475C1466.94 70.2527 1465.17 54.9692 1435.78 56.7327C1412.27 50.6193 1393.07 54.5773 1386.41 57.3205C1377.94 47.2752 1363.29 48.4323 1357.02 50.2666C1318.93 69.5473 1305.09 64.9618 1302.94 60.259C1291.18 66.1366 1280.6 46.1518 1272.96 43.8005C1265.32 41.4492 1261.79 52.03 1261.21 52.03C1260.62 52.03 1252.98 49.0909 1241.22 46.7396C1231.82 44.8586 1210.26 49.4828 1200.66 52.03C1187.96 47.7977 1151.09 50.2666 1134.24 52.03C1120.72 47.3274 1130.12 46.1518 1097.21 53.7935C1064.29 61.4352 1071.34 51.4422 1059.59 55.557C1050.18 58.8488 1032.16 57.7123 1024.32 56.7326C1022.16 58.3002 1016.91 61.5528 1013.15 62.0231C1009.39 62.4933 1006.1 61.0434 1004.92 60.2596C1004.92 62.6109 999.827 66.3338 997.28 67.9013C967.302 73.1918 941.439 63.7865 940.263 63.7865C939.088 63.7865 940.263 62.0231 931.446 66.1378C922.629 70.2526 917.339 60.2596 916.751 60.2596C899.117 69.077 894.414 57.9083 890.887 54.9691C887.361 52.03 870.314 48.5031 862.673 44.9761C855.031 41.4491 843.863 29.1048 837.397 26.7535C832.224 24.8724 805.068 26.3616 792.136 27.3413C786.846 20.8752 751.577 23.8143 745.111 25.5778C738.646 27.3413 731.592 21.463 729.828 23.2265C728.065 24.99 702.789 23.8143 675.75 32.0439C654.119 38.6275 625.199 34.7871 613.443 32.0439C596.984 13.2334 578.175 27.9291 571.709 33.2195C566.536 37.4519 560.149 36.9424 557.601 36.1587C554.27 34.7871 547.021 32.0439 544.67 32.0439C541.73 32.0439 530.562 22.0508 527.035 21.463C524.214 20.9928 521.549 22.4427 520.57 23.2265C512.928 12.6456 508.226 12.0578 496.469 6.76735C487.065 2.535 463.552 15.9766 452.972 23.2265C442.391 17.3482 430.635 22.6387 420.055 24.4021C411.59 25.8129 406.339 24.99 404.772 24.4021C396.347 28.125 374.088 34.16 352.457 28.5169C330.826 22.8738 313.662 29.6926 307.784 33.8073C287.21 33.8073 264.286 49.0908 257.82 51.4421C251.354 53.7934 236.071 52.6178 236.071 51.4421C236.071 50.2665 229.605 39.0978 228.43 39.0978C227.489 39.0978 226.079 40.6653 225.491 41.4491C216.086 37.687 189.831 33.2195 177.879 31.456L119.686 30.8682C108.4 35.5708 88.3361 28.9088 79.7148 24.9899L72.0735 24.9899L72.0735 26.7534C86.7687 46.1517 29.1637 32.0438 26.2246 32.0438C23.8734 32.0438 18.1912 37.1383 15.644 39.6856L17.9954 40.8612C19.171 41.4491 20.9342 50.8543 22.1099 49.0908C23.0503 47.68 27.2042 47.3273 29.1636 47.3273C79.7148 57.9082 73.8369 49.0908 73.8369 46.1517C73.8369 43.2125 72.0734 39.0978 75.0125 38.5099C77.3637 38.0397 97.545 43.8004 107.342 46.7395C110.869 45.5639 118.98 43.8004 123.213 46.1517C128.503 49.0908 176.703 43.8004 179.054 46.1517C181.405 48.503 210.208 51.4421 217.262 53.2056C222.905 54.6164 225.491 56.5366 226.079 57.3204C226.275 56.5366 227.019 54.8515 228.43 54.3813C230.193 53.7934 233.132 62.6108 236.071 67.9013C238.422 72.1336 251.942 69.6647 258.408 67.9013C267.813 58.496 306.02 48.503 308.959 47.3273C311.898 46.1517 317.776 38.5099 328.357 40.8613C338.938 43.2126 373.618 43.8004 377.145 44.3882C380.672 44.976 399.481 39.0978 406.535 37.3343C413.589 35.5708 408.298 36.7465 417.116 39.0978C425.933 41.4491 431.811 34.3952 438.277 33.8074C443.449 33.3371 450.229 35.9627 452.972 37.3343C470.606 23.2265 476.484 24.99 489.416 19.1117C502.348 13.2334 520.57 38.51 520.57 37.9221C520.57 37.3343 527.035 35.5708 530.562 36.1587C534.089 36.7465 543.494 45.5639 544.67 46.1517C545.845 46.7395 545.845 46.1517 553.487 50.2665C559.6 53.5583 565.047 51.6381 567.006 50.2665C571.317 46.5436 582.172 38.51 591.106 36.1587C602.275 33.2195 609.916 43.2126 613.443 46.1517C616.97 49.0909 635.192 48.503 636.367 48.503C650.004 52.7354 663.211 50.2665 668.109 48.503C683.627 43.8004 717.681 39.0978 732.768 37.3343C735.707 43.2126 769.212 33.8074 782.143 37.3343C792.489 40.1559 796.251 41.6451 796.838 42.037C814.473 37.9222 832.695 40.2735 838.573 42.037C844.451 43.8004 856.795 62.6109 862.673 61.4352C867.375 60.4947 884.618 68.8806 892.651 73.1911C902.056 88.474 910.285 79.6578 911.461 80.2457C912.636 80.8335 916.163 76.1309 917.339 78.4822C918.514 80.8335 924.392 84.3605 929.095 83.1848C933.797 82.0092 939.088 82.0085 940.263 82.0085C949.08 87.8868 978.471 85.5355 985.524 85.5355L996.693 85.5355C1000.92 85.5355 1003.94 80.0491 1004.92 77.3059C1008.21 83.4193 1018.44 77.11 1023.14 73.1911C1029.26 76.9532 1039.8 74.7587 1044.3 73.1911C1049.2 72.0155 1061.12 70.3696 1069.58 73.1911C1080.16 76.7181 1093.09 71.4277 1097.21 69.6642C1101.32 67.9007 1118.96 64.3738 1127.19 64.9616C1135.41 65.5494 1133.06 70.252 1136 68.4885C1138.94 66.7251 1185.38 66.7251 1193.02 68.4885C1199.13 69.8993 1208.5 67.9007 1212.42 66.7251C1234.99 59.2009 1254.74 64.7657 1261.79 68.4886C1263.67 63.3157 1268.06 60.8468 1270.02 60.259C1275.9 56.732 1287.66 71.4277 1291.77 76.1303C1295.89 80.8329 1298.24 79.0694 1299.41 77.8938C1300.35 76.9533 1303.33 77.5019 1304.7 77.8938C1315.87 87.299 1344.67 73.1912 1358.19 66.1373C1371.71 59.0833 1384.64 73.1912 1386.41 73.1912C1388.17 73.1912 1400.52 67.9007 1404.63 68.4886C1407.92 68.9588 1426.77 71.8196 1435.78 73.1912C1437.74 71.6236 1445.42 70.1345 1460.47 76.7181C1475.52 83.3018 1482.81 79.854 1484.57 77.3071C1492.1 84.8321 1499.85 85.5362 1502.79 84.9477C1508.67 87.299 1523.37 77.3071 1525.13 77.3071C1539.24 80.834 1573.92 60.8479 1574.51 59.6723Z" fill="white"/>
</g>
<defs>
<filter id="filter0_d_69_20" x="0.644051" y="0.960205" width="1588.9" height="110.04" filterUnits="userSpaceOnUse" color-interpolation-filters="sRGB">
<feFlood flood-opacity="0" result="BackgroundImageFix"/>
<feColorMatrix in="SourceAlpha" type="matrix" values="0 0 0 0 0 0 0 0 0 0 0 0 0 0 0 0 0 0 127 0" result="hardAlpha"/>
<feOffset dy="10"/>
<feGaussianBlur stdDeviation="7.5"/>
<feComposite in2="hardAlpha" operator="out"/>
<feColorMatrix type="matrix" values="0 0 0 0 0 0 0 0 0 0 0 0 0 0 0 0 0 0 0.1 0"/>
<feBlend mode="normal" in2="BackgroundImageFix" result="effect1_dropShadow_69_20"/>
<feBlend mode="normal" in="SourceGraphic" in2="effect1_dropShadow_69_20" result="shape"/>
</filter>
</defs>
</svg>
